<svg width="360" height="507" viewBox="0 0 360 507" fill="none" xmlns="http://www.w3.org/2000/svg">
<path d="M174.9 0.400227C174.7 0.600227 170.2 1.00024 165 1.30024C159.8 1.60024 153 2.40023 150 3.00023C147 3.60023 143.4 4.30023 142 4.50023C136.9 5.40023 122.6 10.0002 112.9 14.0002C54.3 37.5002 12.1 91.7002 1.50001 157.3C-1.19999 174.1 -0.199991 198.9 3.90001 217.1C5.70001 225 16.7 252.7 23.4 265.9C33.1 285.2 54.2 321.1 77.5 358C82.9 366.5 90.1 378 93.5 383.5C99.6 393.4 142.3 459.3 161.5 488.7C171.4 503.8 174.5 507 179.4 507C185.7 507 188.6 504.6 196.8 492.3C206.4 477.9 255.2 401.3 275.4 368.7L290.2 345L259.3 313.9L228.5 282.9L220.2 285.9C196.7 294.6 174.5 295.7 150.3 289.4C127.8 283.6 108.7 270.9 92.7 251.2C83.2 239.4 73.4 219.8 71.5 208.8C71.2 207 70.7 204.8 70.5 204C69.4 200.2 68.9 195.7 68.4 186C66.4 151.1 85 114.3 115.8 92.0002C128.3 83.0002 145.9 75.8002 163.6 72.4002C173 70.7002 192.1 70.9002 200.5 72.9002C202.7 73.5002 206.1 74.2002 208 74.5002C217.3 76.1002 235.1 84.9002 247 93.8002C270.1 110.9 284.3 133 290.6 161.5C292.7 171.1 291.8 196.5 289.1 206.3C284.6 222.1 277.6 236 266.7 250.5L261.7 257.2L252.2 247.7L242.7 238.2L247.2 231.9C261.8 211.3 266.3 187 260 162.5C253.1 135.6 232 113.1 205.2 104.1C195.9 100.9 192.6 100.5 179 100.6C163.4 100.7 155.7 102.5 142.5 109C104.7 127.6 86.7 170 99.7 210C108.5 237.3 131.1 258.4 158.7 265.2C169 267.7 186.9 268.1 196.5 266.1C204.6 264.4 216.5 259.7 222.4 256L227.2 252.9L244.3 269.7C253.8 278.9 270.5 295.4 281.6 306.3L301.7 326.1L312.7 308.8C332.4 277.8 342.9 257.3 350.5 235.1C358.8 210.6 360.1 202.8 360 179.1C359.9 143.8 350.1 112 330.7 83.0002C313 56.8002 287 33.1002 261.9 20.4002C238.7 8.80023 216.3 2.60023 191.5 1.00023C175 -0.0997666 175.4 -0.0997727 174.9 0.400227ZM198 124.6C217.2 130.6 233.1 147.2 238.5 167C241.5 177.8 241 195.2 237.6 204.9C233.1 217.3 219.8 232.8 208.5 238.7C190.4 248.2 168.4 248.4 150.5 239.2C140.7 234.1 128.5 221.9 123.6 212.2C114.9 194.8 114.9 174.6 123.7 156.1C126.5 150.3 129.2 146.7 135.9 140C147.5 128.4 157.9 123.4 173 122.1C183.4 121.3 189.3 121.8 198 124.6Z" fill="black"/>
</svg>
