<svg xmlns="http://www.w3.org/2000/svg" width="533.333" height="533.333" version="1.0" viewBox="0 0 400 400">
  <path d="m191 31-54.5.5-5.8 2.8c-4.4 2.2-6.2 3.8-7.8 6.8-3.5 6.9-4.2 26.7-3.5 98.2l.6 64.7-6.9-4.7c-5.1-3.6-6.7-5.2-6.1-6.3.4-.8 1-8 1.4-16 .5-13.2.4-14.8-1.3-17.7-1.1-1.7-2.9-3.4-3.9-3.7-1.1-.4-2.7-1.8-3.6-3.1-2-3-3.5-3.1-6.7-.6-1.3 1-3.8 2.2-5.6 2.5-6.6 1.5-11.3 7.6-11.3 14.9 0 1.8 1.4 6 3 9.2 1.9 3.7 3 7.4 3 10 0 4-.2 4.2-3.9 5.4-6.5 1.9-16 9-20.6 15.3-6.7 9-9.3 18.6-7.5 27.5 1.6 7.5 5.7 11.8 12.2 12.8l4.5.7-.5 7.3c-.3 5.5 0 8.1 1.2 10.6.9 1.7 1.6 3.4 1.6 3.6 0 .1-2.1.3-4.7.3-11 0-18.2 4.6-20.8 13.3-2.1 6.8-3 27.3-1.7 36.6.9 5.8 1.6 8 3.9 10.4 4.3 4.5 9.8 6.7 17.6 6.7H70v5.6c0 3.1-.7 8.3-1.6 11.7-.8 3.3-1.3 7.1-.9 8.4.7 2.8 4.5 4.8 7.7 3.9 3.8-1 14.7-10.6 22.8-20.1 4.2-5 8.5-9.2 9.4-9.3 1-.2 2.6.4 3.6 1.3 1.5 1.3 2.3 1.4 3.9.5 1.2-.6 2.1-1.7 2.1-2.5 0-1.8 2-2 2-.3.3 12.5 2.1 19.9 5.8 24.2 2.1 2.3 11 6.6 13.7 6.6 1.1-.1-.5-.9-3.5-2-9.8-3.3-13.5-9.4-14.2-23l-.3-6.5 4.2-.3 4.2-.3.3 5.3.3 5.3 35 .7c19.3.4 51.4.7 71.5.5l36.5-.2.6-3c.4-1.7.7-32.3.8-68.1 0-35.8.3-65.3.5-65.5.3-.2 2.5-.3 5-.1l4.6.4v69.3c0 49-.3 70.2-1.1 72.6-2.2 6.5-10.3 12.7-16.9 13-1.4 0-1.9.3-1.2.6 2.8 1.1 10.6-2.1 14.7-6.1 3.3-3.2 4.5-5.3 5.4-9.4.7-3.6 1.1-27 1.1-73.2v-68h11.3c11.3 0 11.4 0 12.8 2.6.8 1.5 3.8 4.7 6.7 7 4.1 3.4 6.3 4.4 9.3 4.5 2.1.1 4.5.2 5.2.3.8.1 1.2-1.9 1.2-6.7v-6.8l8-.5c9.9-.6 13.9-1.8 16.5-5.1 1.9-2.4 2-4 2-23.5 0-16.6-.3-21.6-1.5-24.6-3.1-7.3-6.6-9.4-17.8-10.7-5.3-.6-5.7-.8-5.1-2.8 1.2-3.7.7-9.5-.9-12.1-1.5-2.3-1.5-2.5.7-4 3.1-2 7.6-11.1 7.6-15.3 0-1.8.5-3.3 1-3.3 1.5 0 1.2-7.2-.7-12.9-.9-2.8-3.1-6.8-4.9-9C334 84.2 326.6 80 323 80c-3.6 0-2.3-3.4 2-5.3 2.2-.9 4-2.1 4-2.6s.9-1.1 2-1.4c1.1-.3 2-1.4 2-2.4s.5-2.4 1.1-3c1.6-1.6 2-10.8.6-13.5-3-5.6-5.6-7.5-16.7-12-3.7-1.5-7.8-1.7-9.8-.4-.7.4-1.6.5-2 .2-1.4-.8-7.4 3.3-7.9 5.5-.3 1-.9 1.9-1.3 1.9-1.5 0-4.1 6.2-3 7.4.5.7 1.2 3.1 1.6 5.4.4 2.4 1.5 4.8 2.4 5.5 1 .7 2.1 3 2.5 5 .5 2.5 1.7 4.6 3.6 5.9 3.6 2.7 3.7 3.8.4 3.8-5.8 0-14.4 7.6-17.3 15.2-1.7 4.6-1.7 4.6-1.4-15.1.6-29.5-1.5-38.9-9.9-45-5-3.7-11.7-5.2-22.2-4.9-4.5.1-32.7.5-62.7.8zm76 2.1c6.3 1.3 11.5 5.7 14.4 11.9 1.9 4.2 2.1 6.6 2.4 33 .2 15.7.2 30.7 0 33.5l-.3 5-1.9-4.3c-1.5-3.5-2.3-4.2-4.7-4.2H274V47l-72.2.2-72.3.3.4 75.2.4 75.2-2.6 1.2c-1.4.6-3.1 2.5-3.8 4-.6 1.6-1.5 2.9-2 2.9-1.1 0-1.1-127.6 0-147.5.9-16.5 2-19.3 9.1-22.7 6.1-3 15.2-3.4 78.7-3.6 34.8-.1 53.9.2 57.3.9zm5.7 26.1c-.4 6.2-.7 19.7-.7 30V108h-5.7c-12 0-22.3 1.2-22.3 2.6 0 1.1-2.9 1.4-13.7 1.5-7.6.1-14.7.2-15.8.3-1.1.1-4.8.3-8.2.4-8.1.3-9.3 1.5-9.3 9.7 0 9.5.1 9.5 23.5 9.3l19-.2-19.1-.5c-14.1-.5-19.5-1-20.7-2-1.2-.9-1.7-2.9-1.7-6.7 0-7.7 1.1-8.4 12.9-8.4 5.4 0 15.2-.3 21.8-.6l12-.7.6 2.4c.4 1.3 1.3 4.5 2.1 7.1l1.5 4.8-3 1.7c-3.8 2.2-6.1 7.3-6.1 13.4v4.7l-4.7.6c-2.6.3-5.6 1.3-6.7 2.1-1.5 1.1-5.6 1.4-18.6 1.5-11.7 0-16.8.3-16.8 1.1s4.6 1 16 .7c14.2-.3 16-.2 15.4 1.2-1.3 2.9-2.3 10.5-2.3 17.2l-.1 6.8h-10c-6.6 0-10 .4-10 1.1 0 .8 2.9.9 10 .4l10-.7v7.2h-17.1c-16.5 0-20.2.6-22.1 3.4-.4.6-.8 5.1-.8 9.9 0 8.6.1 9 3.1 11.9l3.1 3.1 23.6-.7c13-.3 24-1 24.4-1.4.5-.5 8.6-.7 18.1-.5l17.2.4.3 67.6.2 67.6-70.2-.7c-38.7-.4-70.3-.8-70.4-.9-.1-.1-.4-2-.6-4.2l-.3-4 42.5-.6c51.6-.7 55.2-1.3 58.7-9.7 3.4-8.2 2.5-40.7-1.4-47.5-1.2-2.1-3.9-4.2-7.8-6.2l-6-3H198c-10.2 0-22.1.2-26.4.5l-8 .5-.7-2.9c-.5-1.6-2-4.2-3.5-5.7-1.5-1.6-2.6-2.9-2.3-3 .2 0 13-.2 28.4-.5 15.4-.3 29-.7 30.2-1 2.4-.5 3.6-2.2 4.7-6.7.4-1.6.2-2.7-.4-2.7-.5 0-1 1-1 2.3 0 1.3-.6 3.2-1.4 4.2-1.3 1.8-3.4 1.9-32 2.3l-30.7.4-4.4-2.3-4.5-2.4v-7.2c0-11.9-2.1-11.3 36.6-11.3 20.5 0 33.2.4 34.5 1 1.4.8 1.9 2.1 1.9 5.6 0 3.1.4 4.3 1.1 3.8 1.7-1 .4-8.6-1.8-10.2-1.4-1-8.9-1.2-36.1-1-40.1.3-37.2-.6-37.2 11.6v7.4l-3.2-.6c-1.8-.4-5-.9-7-1.3l-3.8-.6v-7.3c0-4.5.4-7.4 1-7.4s1.9-1.8 2.9-4.1 2.9-4.6 4.2-5.3c2.5-1.2 3.8-6.1 2.1-7.8-.6-.6-.1-3.3 1.3-7.5 2.3-6.6 2.2-10.2-.4-11.1-.9-.3-.8.3.2 1.9 1.4 2.2 1.3 3-.6 8.7-1.7 4.9-2.5 6.2-4.1 6.2-2.7 0-5.4 7.4-3.5 9.6 1.7 2.1-.7 7-4.1 8.4-3.4 1.4-11.5.4-13.5-1.7-2.1-2.1-2-3.1 2.6-15.6 4.7-12.8 7.2-17.3 9.9-18.2 2-.6 2-2.2 2-76.1V48h142.3l-.6 11.2zm39.1.3c3.7-.5 4.2-.4 4.2 1.3 0 1.1.9 2.2 2 2.5 2.3.6 2.7 3.5.6 4.3-1.2.5-1.2 1 .1 3.3 2.4 4.1 1 9.2-3.4 13.2l-3.7 3.2-2.3-2.8c-1.4-1.6-2.2-3.4-1.8-4.3.3-.9-.7-2.8-2.7-4.9-2.7-2.8-3.3-4.2-3.4-8.4-.3-7.7.3-9 3.5-7.8 1.4.6 4.5.8 6.9.4zm9.6 26.4c-1.4 2.7-2.8 6.7-3.1 9l-.6 4.1h-16l.7-4.9c.4-2.7 1.2-6.6 1.9-8.7l1.3-3.7 2.3 3.6c1.2 2.1 2.7 3.7 3.2 3.7s2.9-1.8 5.2-4c2.3-2.2 5-4 5.9-4 1.5 0 1.4.6-.8 4.9zm-22.9.5c-.8 1.8-2.2 6.3-3.1 10-.9 3.6-2.2 6.6-2.8 6.6-3 0-5.6-1.4-5.6-2.9.1-3.1 4.1-10.4 7.6-13.7 4.5-4.3 5.7-4.3 3.9 0zm36.1.8c4.4 3.9 7 9.3 8 16.7.7 5.2.6 5.3-1.4 4.2-1.2-.6-4.9-1.4-8.4-1.7-3.9-.4-6.8-1.2-7.5-2.2-1.7-2.1-1.6-8.8.2-15 1.9-6.3 3.7-6.7 9.1-2zm-35 12.9c1 1.7-1.3 3.6-2.7 2.2-1.2-1.2-.4-3.3 1.1-3.3.5 0 1.2.5 1.6 1.1zm22.2 2.2c.2 1-.3 1.7-1.2 1.7-1 0-1.6-.9-1.6-2.1 0-2.4 2.3-2.1 2.8.4zm-34.7 3c.1 1.7.2 1.8.6.4.5-1.7 2-2.1 4.5-1.2 2.2.9 1.1 15.4-1.3 18.1-2.8 3-2.3 4.1.6 1.4l2.5-2.4 5 1.8 4.9 1.8 7.8-3.5c4.3-2 9.5-4.2 11.6-5.1 3.4-1.4 3.7-1.8 3.7-5.3v-3.8l4.8.3c9.3.6 9.5.7 8.7 6-.9 5.8-3.8 11.7-6.8 13.7-2.1 1.3-2.7 1.2-7.2-1.1-5.8-3-10-2.7-20.4 1.2-6.6 2.5-11.1 3.1-11.1 1.4 0-.5-.7-.7-1.5-.4-.8.4-1.5.1-1.5-.5s-.6-.8-1.3-.5c-.8.3-2.2-1.2-3.6-3.7-2.1-3.6-2.2-4.6-1.2-7.9.6-2 1.1-4.6 1-5.6 0-1.8-.1-1.8-.9.1-.6 1.5-.9.6-.9-3.3-.1-3.3.3-5.1.9-4.7.6.3 1.1 1.6 1.1 2.8zm29.5 4.4c-.3 2.1-.6 4.9-.6 6.4 0 2.1-.8 2.8-4.7 4.2-6.1 2.2-6.9 2.1-9.3-.3-1.5-1.5-2-3.3-2-7.3 0-3 .3-5.7.7-6 .3-.4 4.2-.7 8.6-.7h8l-.7 3.7zM284 120.9c4.8 11 5.9 12.6 8.3 12.2 1-.1.9 1.7-.1 2.3-.5.3-9.4.6-19.8.7l-18.9.1-4.2-12.3c-2.2-6.8-4.2-12.7-4.2-13.1-.1-.8 5-1.2 22-1.6l11.6-.3 5.3 12zm3 21.5c0 1.3 1.3 4.9 2.8 8 3 5.8 2.9 6.7-1.4 8-2.8.9-6.1-2.9-8-8.9-1.9-6.3-1.9-6.2 1.8-8.5 3.6-2.2 4.8-1.8 4.8 1.4zm37 1.8c0 .6-.7.7-1.6.4-.9-.3-1.8-.6-2-.6-.3 0-.3-.4.1-1 .7-1.1 3.5-.2 3.5 1.2zm-9.5-.2c-.3.5-1.3 1-2.1 1s-1.2-.5-.9-1c.3-.6 1.3-1 2.1-1s1.2.4.9 1zm-35.4 5.5c.9 3.1 1.4 5.7 1 5.9-2 1.3-8.4 1.6-11.9.6-3.4-.9-4.2-1.5-4.2-3.4 0-1.3.7-3 1.6-3.7 1.3-1.1 9.3-4.5 11.4-4.8.3-.1 1.2 2.4 2.1 5.4zm28.9-3.6c0 1-2.4 2.1-4.3 2.1-.7 0-.3-.7.7-1.5 2.2-1.7 3.6-1.9 3.6-.6zm17 2.6c0 .2-4.5 1.8-10 3.6-6.1 2-9.5 3.6-8.7 4.1 2.5 1.6 12.8.8 17.7-1.3 4.2-1.8 6.4-2 15.9-1.7 10.5.3 11.2.4 13.8 3 3.5 3.6 3.9 7.1 3.3 30.1-.6 23.3 0 22.4-15.9 23.4l-10.4.6.6 6.8.6 6.9-4.1-2.1c-2.3-1.2-6.5-4.3-9.3-7l-5.2-4.9h-37.9c-26.5.1-38.9-.2-41.2-1-5.7-2.1-6.3-4.8-6.3-25.6 0-10.1.5-20.2 1.1-22.5 1.3-4.6 5.6-7.9 10.6-7.9 2.9 0 3.2.4 6.7 9.1 2.9 7.3 3.4 9.4 2.5 10.9-1.8 2.8.5 6.9 4.2 7.6 2.8.6 3 1 3 4.9 0 2.3-.6 6.3-1.4 8.8-1.1 3.8-1.1 4.9-.1 6.4 1.2 1.6 1.5 1.5 4.6-.9 1.9-1.4 5.4-4.3 7.9-6.5l4.4-4-2.8-3.8c-2.8-3.6-2.8-3.8-1.2-6.5 1.7-3 2.2-9 .7-9-1.6 0-2.2-3.2-1.5-7.7l.6-4.3h5c2.7 0 5.8-.5 7-1.1 1.6-.9 2.4-.7 3.9 1 2.5 2.6 5.9 2.7 9.2.1 1.3-1.1 7.6-3.5 13.8-5.4 6.3-1.9 12.5-3.9 13.9-4.4 2.2-.8 5-.6 5 .3zm-84-.1c0 .2.3 1.1.6 2 .5 1.3-.1 1.6-3 1.6-2.7 0-4.5.8-7.1 3.2-4.7 4.4-5.6 10.1-5.3 32.8.2 19.1 0 18.6 6.7 21.6 1.8.8 3.2 1.7 3 1.9-.2.2-11.1.5-24.1.7-23.4.3-23.8.3-25.9-1.9-1.9-1.8-2.3-3.6-2.7-10.6-.6-12-1.2-11.7 20.9-11.7H222v5c0 4.7 2.5 11.9 3.7 10.7.2-.3 0-1.4-.6-2.5-1.4-2.6-1.5-39.4-.1-44.3 1.2-4.4 3.8-6.9 8.2-7.9 3.8-.9 7.8-1.2 7.8-.6zm58.6 2.1c-1.1.8-2.9 1.5-4 1.5-2.1-.1-2.1-.1-.2-1.5 1.1-.8 2.9-1.5 4-1.5 2.1.1 2.1.1.2 1.5zm46.8-.6c6.4 1.5 6.4 2.9-.1 1.9-3.2-.5-8.2-.8-11-.5-4.3.3-5.1.1-4.2-1 1.3-1.5 9.4-1.7 15.3-.4zm-248 10c0 7.1-.2 7.6-3.2 10.1-1.8 1.5-3.2 3.1-3.2 3.7 0 1.6-7.4 7.3-9.4 7.3s-2-.3.4-5c1.1-2.1 3.3-7.4 5-11.7 4.1-10.4 5.6-12.5 8.3-12.1 2 .3 2.2.8 2.1 7.7zM88 156.8c-1.4.9-4.2 3.2-6.2 5.1-2.3 2-3.8 2.8-3.8 1.9 0-2.3 3.1-5.9 6.4-7.4 4.4-1.9 6.7-1.7 3.6.4zm15.5-.2c3.4 1.4 5.8 9.8 3.6 13.2-1.1 1.9-7.1-4.5-7.1-7.6 0-2.6 2.5-3 3.9-.5.6 1 1.1 1.3 1.1.7 0-.6-.9-1.9-2-2.9-3-2.7-2.8-4.1.5-2.9zm-15.6 4.6c-.7 1.2-1.4 3.1-1.6 4.1-.3 1.6-5 11.6-6 12.7-.6.6-2.3-2.2-2.3-3.8 0-.7 1.9-3.3 4.1-5.7 5-5.4 4-6-1.3-.8-4.3 4.2-5.2 2.7-1.2-2.1 2.9-3.4 8.5-7.8 9.2-7.2.2.2-.2 1.5-.9 2.8zm14.1 10.7c-.6 1.2-.9 2.7-.6 3.4.2.7.5.5.5-.4.1-2.1 4.8-3.1 5.5-1.3.3.7-.1 2-.9 2.8-1 .9-1.1 1.6-.4 1.8.6.2.9 1.4.7 2.7-.3 2.2-.4 2.2-3.5-.9-1.9-1.9-3.3-4.2-3.3-5.7 0-1.3-.6-2.6-1.4-2.9-1.2-.5-1.3-1.1-.4-3 1.1-2.5 1.2-2.5 3.1-.6 1.6 1.6 1.7 2.3.7 4.1zm166 1.2c0 3.9-1.9 5.8-6.3 6.4-6.5 1-11.1-.5-11.5-3.7-.3-2.4 0-2.7 4-3.2 2.4-.3 5.4-.7 6.8-1 6-.9 7-.6 7 1.5zM98.5 175c0 1.8-.6 2.6-2.3 2.8-2.4.4-3.8-1.8-2.8-4.4.3-.9 1.5-1.4 2.8-1.2 1.7.2 2.3 1 2.3 2.8zm-6 3.1c.4.6 1.6 1.4 2.7 1.8 1.8.6 1.8.8-.6 2.1-2.3 1.2-2.8 1.1-4.6-.5-1.5-1.4-1.7-2.1-.9-3.2 1.4-1.6 2.6-1.7 3.4-.2zm8 .9c-.3.5-1.1 1-1.6 1-.6 0-.7-.5-.4-1 .3-.6 1.1-1 1.6-1 .6 0 .7.4.4 1zm164.5 3.4c0 2.1-2.8 4.6-5.1 4.6-1 0-1.9-.3-1.9-.8 0-.4-.3-1.7-.6-3-.6-2-.3-2.2 3.5-2.2 2.9 0 4.1.4 4.1 1.4zM89.7 194.3c1.8 1.6 4.7 3 7.3 3.5 4.1.7 4.2.8 2.6 2.5-3.8 3.7-10 3.4-14.2-.8-2.1-2.1-2.4-3.3-2.4-9.2v-6.8l1.9 4c1 2.2 3.2 5.2 4.8 6.8zm12.4-9.3c1.1 0 1.7.4 1.4 1-1 1.6-4.1 1.2-5.6-.7-1.2-1.5-1.2-1.6.4-1 1 .4 2.8.7 3.8.7zm165.7 1.2c.7.7 1.2 1.7 1.2 2.4 0 1.1-12.1 11.4-13.4 11.4-1.3 0-.5-4.1 1-4.7 1.2-.5 1.3-.7.3-1.4-1-.6-.7-1.1 1.1-1.8s2-1 .8-1c-3.2-.1-2.1-3.1 1.1-3.1 1.6 0 3.4-.7 4.1-1.5 1.5-1.8 2.2-1.9 3.8-.3zM82 195.6c0 .9 1.5 3.1 3.4 5 2.6 2.6 4.2 3.4 7 3.4 4.8 0 7.8-1.5 9.8-5.1.9-1.6 2.3-2.9 3.1-2.9.8 0 4.9 2.5 9.1 5.6 5.8 4.2 7.6 6 7.1 7.3-.4.9-1.6 4-2.7 6.8-1.2 2.9-2.4 5.3-2.8 5.3-.3 0-1.4-2.1-2.3-4.8-1.5-4.3-1.6-2.8-.1 3.3.6 2.4.4 2.5-3.9 2.5-2.9 0-5.3.7-7 2-1.4 1.1-4 2-5.9 2-1.8 0-7.6.7-12.8 1.5-5.2.8-9.6 1.3-9.8 1.1-.2-.2 1.1-3.2 2.8-6.6 1.7-3.4 2.9-6.4 2.6-6.7-.3-.3-2 2.6-3.8 6.5-1.8 4-4 7.2-4.8 7.2-1 .1-1.1.3-.3.7.7.2 7.2-.3 14.4-1.2 8.1-1 13.5-1.3 14-.8.6.6 1.2 2.5 1.5 4.4l.6 3.4-14.7 5.8c-16.7 6.6-22.3 7.7-27.7 5.4-8.2-3.4-10.3-17.4-4.5-30.1 3.3-7.1 12.3-16.3 19.6-19.9 6.3-3.1 8.1-3.3 8.1-1.1zm235 19.9c1.4 1.6 4.5 4.1 6.9 5.6 3.7 2.4 4.1 2.9 2.2 2.9-1.2 0-3.2-.5-4.4-1.1-3.2-1.7-10.7-9.1-10.7-10.6 0-1.8 2.7-.3 6 3.2zm-177.6 3.1c1.9.7 2.1 4.5.4 6.2-1.5 1.5-5.8 1.6-5.8.2 0-.6 1.5-1.1 3.3-1.1 3-.2 3-.2.5-.6-3.3-.5-3.8-2.3-.6-2.3 2.1 0 2.1 0 .2-1.5-1.9-1.5-.8-2 2-.9zm-27.6 5.1c-1 .2-1.8 1.1-1.8 1.9 0 .8-.5 1.4-1.1 1.4-.5 0-.8.4-.5.8.2.4-1.1 1.3-3.1 1.9-4.5 1.4-5.6-.7-2.3-4.3 1.8-1.8 3.3-2.4 6.4-2.3 2.3.1 3.3.3 2.4.6zm2.6 3.8c-.4 2.7-.2 5 .4 5.8.6.6 1.3 4.4 1.7 8.4l.7 7.1-6.3.6c-27.3 2.5-32.5 3.3-41.5 6.1-1.8.6-2 .3-1.6-2.8.4-3.1.8-3.5 6-5.1 10.7-3.2 28.7-11.2 28.7-12.7.1-2.5 1.5-3.9 4.1-3.9 1.7 0 2.7-.8 3.5-2.7.8-2.2 3.5-5.1 4.7-5.3.2 0 0 2-.4 4.5zm11.9 9.5h3.7v13h-4.4c-7.2 0-7.6-.4-7.6-7.7 0-6.3.1-6.5 2.3-5.9 1.2.3 3.9.6 6 .6zm-15.6 20.7c4.3 2 11 9.4 13.4 14.8 2.1 4.7 3.6 5.5 11.2 5.5 4.7 0 4.7 0 4.7 3.4 0 9.1 2.3 34.1 3.1 34.4.5.2.7 3 .3 6.8-.8 7.5.3 9.4 5 9.3 3.2-.1 2.9-.3-1.6-1.3-2.5-.6-2.8-1.1-2.8-4.7 0-3.3.3-4 1.6-3.5.9.3 3 .6 4.7.6 3 0 3 .1 1.1 1.6-1.8 1.5-1.8 1.5.3.5 3.1-1.5 3.8-1.4 2.2.6-1.2 1.5-1.2 1.6.5 1 1.3-.5 2.7-.1 4.3 1.4 3.3 3.1 2.9 3.9-1.9 4.1l-4.3.1 3.9.4c6.5.7 6.8-1.2 1-6.7-4.2-4-5.5-4.7-7.8-4.3-2.9.6-4.6-.8-4.6-3.6 0-1 1-1.2 4.1-.8 3.1.4 4.5.1 5.9-1.3 2.7-2.7 7.2-19.4 8.6-31.7l.6-6.1 4.2-.6c2.2-.3 14.9-.7 28.1-.7 35.7-.2 35-.8 35 29.1 0 28.4.9 27.7-38 29.1-14.3.5-37.2.8-51 .7l-25-.3-.6-3.5c-.5-3-.7-2.6-.8 2.1-.1 4.4-.5 5.8-1.8 6.4-2.1.7-4.4-1.8-7.9-8.7-3-5.9-3-6 .1-4.6 1.9.8 3.1.8 5.2-.1 2.1-1 2.8-.9 3.5.1 1 1.3.8.1-.7-4.9-.5-1.6-.2-2.3 1.3-2.7 2.1-.7 2.8-4.4 5.2-26.1 1.7-15.7 1.4-19.6-2-24.7-3.4-5.1-8.2-9.1-13.5-11.4-1.9-.8-3.5-1.7-3.5-2 0-.8 4.8.4 8.7 2.3zm105.8 15.5c2.2.6 3.3 1.3 2.5 1.4-.8.2-13.5.5-28.2.7-21.3.3-26.8.1-26.8-.9 0-1.6 5.1-2 30-2.2 11.7-.1 20 .2 22.5 1zm-144.7 1c1.7 1.7 1.5 2.9-.3 2.2-.8-.4-4.5-.1-8.1.6-7.8 1.5-12.6 5.4-14.2 11.5-2.4 9.4-2.2 37.5.3 44 .7 1.8.5 1.7-1.8-.4-4.2-3.8-5.1-8.2-5-24.6 0-18.3 1.5-24.7 6.8-29.4 2-1.7 4.5-3.3 5.8-3.5 1.2-.3 3.1-.7 4.2-.9 4.3-.9 11.2-.6 12.3.5zm10.6 5.3c2.7.8 6.8 1.5 9.1 1.5h4.2l1.6 8.2c.9 4.6 2.3 13.3 3.1 19.5.8 6.2 1.8 11.8 2.2 12.4.4.7 2.3.9 5.5.5 4.5-.6 4.9-.5 4.9 1.4 0 2.9-3.8 4.2-6.7 2.4-1.2-.8-2.5-1.4-2.8-1.4-1.1 0-.4 3.3 1.6 8.1l2.2 5-2.1 1.5c-1.2.8-5.3 5.3-9.1 9.8C88.9 357 76.9 367 73.8 367c-2.3 0-2.2-.7.1-6.1 3-6.7 4.4-13.5 3.7-17.4-.9-4.8-4.5-6.5-14-6.5-10.7 0-12.4-1.6-13.8-13-1.4-11.9-.3-33.4 2-38 3.6-7.3 17.9-10.4 30.6-6.5zm-6.6 65.9c.4 4.2-2.1 13.3-4.7 17.7-2.7 4.5-3.6 1.1-1.5-6 .9-3.1 1.7-8.4 1.7-11.8.1-6.1.1-6.3 2.1-4.9 1.4.8 2.2 2.6 2.4 5z"/>
  <path d="M170.5 38c-1.7 2.7 1.7 3 35.1 3 33.7 0 34.4 0 34.4-2s-.7-2-34.4-2c-21.9 0-34.7.4-35.1 1zm-17.3 38.3c-8.9 1.8-15.5 12.4-13.1 21 1.7 6.3 8.8 12.8 13.6 12.6 1.2 0 .9-.3-.8-.9-9.7-2.9-14.6-13.6-10.3-22.7C148 75 164.5 74 171 84.5c1.8 2.9 2.2 4.7 1.8 9.4-.5 7-3.4 11.5-9.2 14.3-3.3 1.6-3.5 1.8-1.2 1.3 4.5-1 8.2-4.1 10.5-8.8 3.3-6.8 2.3-13.5-2.8-19-4.7-5.2-10-6.9-16.9-5.4zm33.2 3.6c-8 1-8.4 1.7-8.4 13.5 0 5.5.4 10.6.8 11.3.4.6 2 1.7 3.5 2.2 3 1.2 29.1 1.3 56.1.2l15.9-.6 2.1-2.8c1.7-2.4 2.1-4.1 1.9-10.2-.2-7.5-1.3-11-4.2-13.2-1.8-1.4-44.1-1.9-44.1-.6 0 .5 8.4.6 18.6.5 23.2-.5 25.1-.2 27 4.3 2.7 6.5 1.5 18.4-2 20.7-.6.4-16.9.8-36.3.8-30.6 0-35.4-.2-36.7-1.6-1.2-1.2-1.6-3.7-1.6-10.9 0-11.8.7-12.5 12.3-12.5 5 0 7.6-.4 7.2-1-.7-1.1-3.9-1.1-12.1-.1z"/>
  <path d="M153.6 84.2c-1.3 1.9-1.4 2.5-.2 4.3 2.6 4 8.6 2.7 8.6-1.9 0-4.7-5.7-6.3-8.4-2.4zM188 88c0 .5.9 1 2.1 1 1.1 0 1.7-.5 1.4-1-.3-.6-1.3-1-2.1-1s-1.4.4-1.4 1zm5.6-.1c.5.4 10.6.5 22.4.1l21.5-.7-22.4-.1c-12.7-.1-22.1.2-21.5.7zm-43 10.2c-4.4 5.2-3.7 5.9 6.4 5.9 8.1 0 9-.2 9-1.9 0-1-1.1-3-2.5-4.5-3.6-3.9-9.4-3.7-12.9.5zm75.9-2.1c-1.3.6.7.9 6 .9s7.3-.3 6-.9c-1.1-.5-3.8-.9-6-.9s-4.9.4-6 .9zm-15.9 22.8c.5.5 6.3.6 12.9.2l12-.7-12.9-.1c-7.2-.1-12.6.2-12 .6zm-.6 6.2c-3.3 1 15.7 1 23 0 4.3-.6 2.6-.7-7.5-.7-7.1 0-14.1.3-15.5.7zm-59 21.1c-3.3 1.3-7.8 5.6-9.7 9.3-3.6 6.9-.8 16.9 5.9 21.3 16.7 11.1 36.7-10.4 23.5-25.4-5.1-5.8-13-7.9-19.7-5.2zm14.9 2.6c7.8 5.8 9.5 15.7 4 23.2-4.9 6.9-11.8 8.7-19.5 5.2-8.7-3.9-11.9-14.2-7-22.4 4.7-8.2 15.6-11 22.5-6z"/>
  <path d="M154.4 151.7c-3.4 2.5-1.2 8.3 3.2 8.3 3 0 5.4-4.2 3.7-6.8-1.1-1.8-5.1-2.7-6.9-1.5zm-2.8 14.5c-1.3 1.3-2.7 3.3-3.1 4.5-.6 2.3-.5 2.3 8.4 2.3 9.5 0 10.1-.3 7.9-4.3-2.7-5.2-8.9-6.3-13.2-2.5zm32.7-14.5c-4.4.6-6.3 3.6-6.2 9.8.1 9.2 1.2 13.7 3.9 15.6 3.2 2.3 8 3.5 8 2 0-.6-1.1-1.1-2.4-1.1-1.4 0-3.6-1-5.1-2.3-2.4-2.1-2.5-2.8-2.6-11.6-.1-10.6.2-11.1 6.9-11.1 2.6 0 4.1-.4 3.7-1-.3-.6-1.2-.9-1.8-.8-.7 0-2.7.3-4.4.5zm8.2 9.3c-2.6.5.7.7 9 .7 9.5 0 11.8-.2 8.5-.8-5.4-.9-12-.9-17.5.1z"/>
  <path d="M190.3 170.6c.7.7 26.9.6 27.6-.1.2-.3-6-.5-13.9-.5s-14.1.3-13.7.6zm-55 29.1c.9.2 2.5.2 3.5 0 .9-.3.1-.5-1.8-.5-1.9 0-2.7.2-1.7.5zm-6.5 2.4c-1 .5-2.2 1.8-2.8 2.8-1.7 3.3-9.1 24.6-8.1 23.6.5-.6 2.4-5.2 4.2-10.3 4.1-12.1 6.5-15.5 10.9-16.3 3.4-.6 3.4-.6.5-.7-1.6-.1-3.8.3-4.7.9z"/>
  <path d="M132.4 205.1c-1 1.7 1.3 3.6 2.7 2.2 1.2-1.2.4-3.3-1.1-3.3-.5 0-1.2.5-1.6 1.1zm105 24.3c-4.8 3-6.8 5.7-8.4 11.4-2.7 10.1 6.6 21.4 17.2 21.1 3-.1 2.9-.2-1.1-1-9.9-1.9-15.7-9-14.9-18 1.2-11.9 13.9-18.5 24.2-12.6 10.5 6 10 22.3-.9 28.4-2.2 1.3-3.4 2.3-2.6 2.3 2.5 0 8-4 10.1-7.4 7.2-11.8 0-25.5-13.8-26.3-4.7-.3-6.4 0-9.8 2.1z"/>
  <path d="M242 235.1c-1.4 2.6 1.1 6.9 4 6.9 2 0 5-2.5 5-4.1 0-4.7-6.9-6.9-9-2.8zm-70.2 9.6c3.9.2 10.5.2 14.5 0 3.9-.1.7-.3-7.3-.3s-11.2.2-7.2.3zm69.1 1.6c-2.3 1.8-4.1 5.6-3.5 7.3.5 1.2 2.3 1.4 8.8 1.2 7.7-.3 8.3-.5 8.6-2.5.5-3.5-3.9-7.3-8.5-7.3-2.1 0-4.5.6-5.4 1.3zm-75.4 4.7c-4.5.5-2.3.7 8.5.8 9.7.1 14-.2 13-.8-1.6-1.1-12-1.1-21.5 0zM303.1 64.6c0 1.1.3 1.4.6.6.3-.7.2-1.6-.1-1.9-.3-.4-.6.2-.5 1.3zm1.4 3.3c-.3.5-.1 1.2.5 1.6.5.3 1-.1 1-.9 0-1.8-.6-2.1-1.5-.7zm6.6 3.5c-2.3 1.3-2.3 1.3-.3 1.8 1.3.4 2.3 0 2.7-1 .8-2.1.4-2.2-2.4-.8zM308 108c0 .5.4 1 .9 1 .6 0 1.3-.5 1.6-1 .3-.6-.1-1-.9-1-.9 0-1.6.4-1.6 1zm-5.9 1.6c0 1.1.3 1.4.6.6.3-.7.2-1.6-.1-1.9-.3-.4-.6.2-.5 1.3zm12 0c0 1.1.3 1.4.6.6.3-.7.2-1.6-.1-1.9-.3-.4-.6.2-.5 1.3zm-52.6 4.4c-1 1.7 1.2 3.7 2.5 2.4.8-.8.6-1.5-.4-2.3-1-.9-1.6-.9-2.1-.1zm9.5 36.3c0 1.4.5 2.9 1 3.2.7.4.8-.3.4-2.2-.9-3.8-1.4-4.2-1.4-1zm4-.2c.7 1.1 1.4 1.9 1.6 1.6.7-.7-.7-3.7-1.7-3.7-.6 0-.5.9.1 2.1zM192 197c0 1.1 8.5 1.2 17.5 0 5.2-.6 4.5-.7-5.7-.9-7.3 0-11.8.3-11.8.9zm1.5 8c.3.6 4.8 1 10.1 1 5.6 0 9.4-.4 9.4-1s-4-1-10.1-1c-6.4 0-9.8.4-9.4 1zm-84 125c-.3.6.1.7.9.4 1.8-.7 2.1-1.4.7-1.4-.6 0-1.3.4-1.6 1zm2.8 2c-1.3.5-2.3 1.2-2.3 1.5 0 .9 1.6.5 3.6-1 2.2-1.6 1.9-1.8-1.3-.5zM58.5 62.7c-8.8 1.1-10.2 3.6-9.3 16.5.7 9.7 1.4 10.2 14.1 10.6 6.8.3 10.7.8 11.7 1.8 2.1 1.8 8.5 4.4 11 4.4 2 0 2-.1.5-3-1.8-3.5-1.8-3.5 5.7-4.5 5.9-.8 6.8-2.2 6.8-11.3 0-9.2-1.3-12.8-5.2-14.1-2.9-1-28.4-1.3-35.3-.4zm17 13.3c0 2.9-3.2 4.1-4.1 1.6-.9-2.4.4-4.8 2.3-4.4 1.2.2 1.8 1.2 1.8 2.8zm11.3-.2c.2 1.4-.2 2.2-1.2 2.2-1.9 0-2.9-1.7-2.2-3.6.8-2.2 3-1.2 3.4 1.4zM63 75.6c1.1 1.2 1 1.8-.3 3.2-1.6 1.5-1.8 1.5-3.4 0-1.3-1.4-1.4-2-.3-3.2.7-.9 1.6-1.6 2-1.6.4 0 1.3.7 2 1.6zm250.5 193.9c-.5.2-2.2.6-3.7.9-3.5.8-4.8 4.8-4.8 14.6 0 8.9.5 9.6 7 10.5 7.3 1.1 7.3 1.1 5.5 4.5-1.5 2.9-1.5 3 .7 3 2.7 0 10.3-3.3 11.2-4.9.5-.7 4.2-1.1 9.6-1.1 4.9 0 10-.4 11.4-1 3.1-1.1 4.6-6 4.6-14.6 0-8.5-1.5-10.1-10.5-11.4-6.5-.9-28.7-1.3-31-.5zm7.3 13.3c.3 1.6-.2 2.2-1.7 2.2-2.4 0-3.5-1.5-2.7-3.6.9-2.3 4-1.3 4.4 1.4zm11.7.2c0 2.9-3.2 4.1-4.1 1.6-.9-2.4.4-4.8 2.3-4.4 1.2.2 1.8 1.2 1.8 2.8zm12.5-.4c1.1 1.2 1.1 1.8-.2 3-1.8 1.8-4.8.8-4.8-1.6 0-1.6 1.1-2.7 3.1-2.9.4-.1 1.2.6 1.9 1.5zm-88.2 84.9c-.2.3-21.6.5-47.4.6-25.8.1-51.8.4-57.9.8-9.3.7-7.2.8 13.5.9 36.2.3 98.3-1 96.8-1.9-1.4-1-4.2-1.2-5-.4z"/>
</svg>
